#!OML:ASF F:\VICON\USERDATA\INSTALL\rory3\rory3.ASF
:FULLY-SPECIFIED
:DEGREES
44
root -0.6828197218874211 17.986615961634634 -10.212382895068359 5.483209330665073 1.7904758658895592 -2.814266810266936
lfemur -32.43195139507178 0.10561125744116906 -21.509169964294056
ltibia 36.255075650801345
lfoot 6.615001395151944 -10.777677191443408
ltoes -21.631724494192596
rfemur 4.798782707847337 7.488317289475004 32.556929338274145
rtibia 87.79808735604841
rfoot 7.324407630407517 -7.863568786590557
rtoes -3.2519894156899807
lowerback 12.771777754595796 1.8282971871884954 3.6119278906956342
upperback -1.725424565243808 3.0385794167827442 -0.1751695705400902
thorax -7.961368277997579 1.3143551143384626 -2.3063584489536937
lowerneck -17.43506132869518 -5.236824849771563 -2.0671786771136564
upperneck 11.632227641793886 -7.106537815526686 2.2079353319962807
head 6.3859003503309815 -3.3360793315153865 0.14008650823492952
lclavicle 1.1245391003465993e-15 -1.4766016290101786e-15
lhumerus -35.08795041246722 -20.295304559168684 96.84285834157929
lradius 117.37450275008341
lwrist 42.2992816647007
lhand -28.77325264312185 -0.35624305726194416
lfingers 7.125019999999998
lthumb -1.8811332612101608 29.442137126591525
rclavicle 1.1245391003982906e-15 -1.4766016289770952e-15
rhumerus -48.24603903818008 12.836325717324552 -95.10974613351294
rradius 125.49803413067619
rwrist -12.092136118277567
rhand -21.622024163832037 42.210321246382
rfingers 7.125019999999998
rthumb 4.87933732738156 12.046810878544436
45
root -0.6725025916172301 17.99337282631887 -9.077950873466857 5.430179614147338 1.6204757381650943 -2.681588363605203
lfemur -31.312471520825554 0.5616928383457873 -22.089200389398826
ltibia 34.24192050401679
lfoot 7.010558399277917 -11.281825101816779
ltoes -19.25768919968964
rfemur 3.144355943442097 7.2771193059845185 31.935765470582602
rtibia 91.27485872405775
rfoot 6.799227776134016 -8.644561685962325
rtoes -4.350703524404125
lowerback 12.714113838133116 1.814147550314443 3.423672741847125
upperback -1.6724154872952557 2.9982760911955344 -0.22044042269332276
thorax -7.717592361290066 1.3082241937181733 -2.238962576464605
lowerneck -17.680323398250877 -5.243470016686018 -2.1048202136103744
upperneck 11.630600615229032 -7.133049668614486 2.3737048628949022
head 6.452728093700392 -3.332209548454663 0.18703903780005843
lclavicle 1.1245391003411655e-15 -1.4766016290145763e-15
lhumerus -34.705117411201606 -20.260072043152572 96.74325147411697
lradius 118.6209460711733
lwrist 42.16615281850494
lhand -28.90789173961574 -0.585119957209963
lfingers 7.125019999999998
lthumb -1.9344239767145956 29.556490603827996
rclavicle 1.124539100391759e-15 -1.4766016289823338e-15
rhumerus -48.46154813865515 12.832802019074576 -95.43612065448977
rradius 124.92944607573274
rwrist -12.076553750729017
rhand -21.553905932498648 42.23224581682556
rfingers 7.125019999999998
rthumb 4.85466604034402 11.866405287621063
46
root -0.6612372943224349 18.000969447008035 -8.058302137884567 5.360900652396097 1.541662816332153 -2.4897030250559737
lfemur -30.192561247535984 0.9465966388479372 -22.705638486802748
ltibia 32.9808320558561
lfoot 7.587951683851566 -11.908558130453816
ltoes -17.235185043858266
rfemur 1.3817425397247973 6.872473043300861 31.193126534386735
rtibia 94.53145115644604
rfoot 6.3029241459762275 -9.379763022200514
rtoes -5.28449290910469
lowerback 12.667390005579797 1.7791916175635516 3.1964671242088576
upperback -1.6224296978558814 2.9296788866718204 -0.25081665434383704
thorax -7.513731599317472 1.2903309969607566 -2.1306668109878157
lowerneck -17.890018979307982 -5.241909913803437 -2.1439174285796474
upperneck 11.551573255562818 -7.140215232271213 2.5547911011121376
head 6.490174848378992 -3.316611066881392 0.2489466858844261
lclavicle 1.1245391003349932e-15 -1.476601629019511e-15
lhumerus -34.55601623484823 -20.243662386258396 96.73515131286034
lradius 119.71393944386026
lwrist 41.88123542811519
lhand -28.97603954620698 -0.6488142177022654
lfingers 7.125019999999998
lthumb -2.0375412289434864 29.664071355158224
rclavicle 1.124539100389387e-15 -1.4766016289845006e-15
rhumerus -48.64226466789629 12.844454323369414 -95.74223472453266
rradius 124.29332390672923
rwrist -12.031700393865734
rhand -21.4735363514195 42.12080651002089
rfingers 7.125019999999998
rthumb 4.89040255175879 11.80614869664118
47
root -0.6590854035323112 18.01598922615219 -7.285297218033601 5.308200065270729 1.5350743015970196 -2.3180499717846432
lfemur -29.033505909773822 1.2493752251949635 -23.249597282530573
ltibia 32.38982789438342
lfoot 8.147665288667234 -12.68619744943831
ltoes -16.432933018902872
rfemur -0.48548245665344325 6.360490168902775 30.508239202605008
rtibia 97.47207113662049
rfoot 5.890319885405338 -10.043410169031093
rtoes -7.79346187174324
lowerback 12.686561499969258 1.7310171887370116 2.9766801629031256
upperback -1.585828266404814 2.8425141025386917 -0.23098789709095846
thorax -7.419240885927917 1.2653329637475388 -1.9865054714882349
lowerneck -18.085300364404464 -5.233944230592444 -2.182619226140197
upperneck 11.442573912453382 -7.1389282307095 2.7478425514509484
head 6.528131665129188 -3.293933993414411 0.31721900287079885
lclavicle 1.1245391003327998e-15 -1.4766016290212878e-15
lhumerus -34.54791930933547 -20.184400984722302 96.76366918238945
lradius 120.64242105848993
lwrist 41.328601281189194
lhand -29.210632842565502 -0.7652880121199079
lfingers 7.125019999999998
lthumb -2.2552081504195853 29.664080852307002
rclavicle 1.1245391003894629e-15 -1.4766016289846572e-15
rhumerus -48.8710572781553 12.810151713133635 -96.09795394446286
rradius 123.6725055696481
rwrist -12.193242550475283
rhand -21.405247345326433 41.81577503160663
rfingers 7.125019999999998
rthumb 4.921725309886723 11.648942066582793
48
root -0.6622877214555896 18.00680641328702 -6.569536318636554 5.189919406497526 1.5220679374062425 -2.125217873963011
lfemur -27.78721849837023 1.5257731817211437 -23.777298776957387
ltibia 32.35240411193819
lfoot 7.712768366914298 -13.325681877814695
ltoes -17.29833709445097
rfemur -2.303234420745218 5.740001950052676 29.750156174920544
rtibia 100.21806028137354
rfoot 5.4995140435244485 -10.5468356600046
rtoes -8.853835888814016
lowerback 12.748991135783914 1.6834929312882645 2.713728932753414
upperback -1.4947370861230473 2.7470134452455564 -0.23439228943912038
thorax -7.277409710671513 1.2438669076405238 -1.8139813470970485
lowerneck -18.32470581562702 -5.207712234410543 -2.2147325068159125
upperneck 11.33472644993123 -7.113092103428615 2.937335332392453
head 6.573039327025717 -3.261112237634817 0.38896920272029284
lclavicle 1.1245391003293164e-15 -1.4766016290239486e-15
lhumerus -34.5634608091864 -20.17816012051094 96.77168054605376
lradius 121.38803757359581
lwrist 40.43988110057909
lhand -29.21409636990312 -0.7338532867094074
lfingers 7.125019999999998
lthumb -2.580879185860009 29.47527130926383
rclavicle 1.1245391003852863e-15 -1.4766016289878527e-15
rhumerus -49.1182302054335 12.723079137707046 -96.50511698697271
rradius 123.08957612241902
rwrist -12.402088205024869
rhand -21.317110192418394 41.62581576163196
rfingers 7.125019999999998
rthumb 5.004107598114717 11.660941843465878
49
root -0.67620639558873 17.984741620859815 -6.069799147354376 5.027207682286718 1.5156175856070284 -1.9329358488414667
lfemur -26.55254623644014 1.7641004271203633 -24.27396205249601
ltibia 32.787686930651745
lfoot 6.866666810859193 -13.41523113116777
ltoes -18.246189765230834
rfemur -4.184519923288397 5.07871989787896 28.97952204630658
rtibia 102.71348806098283
rfoot 4.680703409728112 -11.102104328080829
rtoes -10.235752253808142
lowerback 12.890113647401556 1.6341140203097795 2.4131793114358713
upperback -1.4019512215974848 2.6493283173678575 -0.21813207870830031
thorax -7.26527754486499 1.2143032084523766 -1.6180667179404922
lowerneck -18.521270239336303 -5.177130132351385 -2.2099955382921395
upperneck 11.164487695266208 -7.07855381971326 3.1012076338240004
head 6.592713866111709 -3.227910987740385 0.45081588424121477
lclavicle 1.1245391003236092e-15 -1.4766016290278552e-15
lhumerus -34.78667676468451 -20.073257489729713 96.80499711265813
lradius 122.02951699815453
lwrist 40.01557976777838
lhand -29.512192112496248 -0.7761397157873076
lfingers 7.125019999999998
lthumb -2.7665156332085905 29.445435024981087
rclavicle 1.1245391003821344e-15 -1.4766016289898712e-15
rhumerus -49.366771149143155 12.602223399758554 -96.92170942435929
rradius 122.53131444765644
rwrist -12.450522920239557
rhand -21.347718912516815 41.31112893309207
rfingers 7.125019999999998
rthumb 4.999159633173965 11.538599524241533
